<svg xmlns="http://www.w3.org/2000/svg" width="125" height="125" viewBox="0 0 125 125" fill="none">
<g clip-path="url(#clip0_1269_534345)">
<path d="M41.9069 45.635C39.2829 41.6605 34.4817 49.1538 38.5474 49.8255C40.4674 50.1428 42.7562 48.2273 42.2192 46.3088C42.1559 46.083 42.0537 45.8573 41.9069 45.635Z" fill="#006CB7" fill-opacity="0.05"/>
<path d="M20.0103 89.8158C19.7803 89.6108 19.5073 89.4335 19.1873 89.2915C13.4675 86.7525 13.464 98.4463 18.4388 96.3085C20.788 95.299 21.9635 91.5578 20.01 89.8158H20.0103Z" fill="#006CB7" fill-opacity="0.05"/>
<path d="M108.242 85.2633C108.032 85.0758 107.782 84.9135 107.489 84.7838C102.258 82.4615 102.254 93.157 106.805 91.202C108.953 90.2788 110.029 86.8568 108.242 85.2633Z" fill="#006CB7" fill-opacity="0.05"/>
<path d="M68.5557 89.8811C66.0269 88.7586 66.0254 93.9284 68.2247 92.9834C69.2634 92.5371 69.7829 90.8831 68.9194 90.1129C68.8177 90.0221 68.6969 89.9439 68.5557 89.8811Z" fill="#006CB7" fill-opacity="0.05"/>
<path d="M71.4722 15.5061C68.9434 14.3836 68.9419 19.5534 71.1412 18.6084C72.1799 18.1621 72.6994 16.5081 71.8359 15.7379C71.7342 15.6471 71.6134 15.5689 71.4722 15.5061Z" fill="#006CB7" fill-opacity="0.05"/>
<path d="M112.931 61.3396C110.402 60.2171 110.4 65.3869 112.6 64.4419C113.638 63.9956 114.158 62.3416 113.294 61.5714C113.193 61.4806 113.072 61.4024 112.931 61.3396Z" fill="#006CB7" fill-opacity="0.05"/>
<path d="M83.7639 114.465C81.2352 113.342 81.2337 118.512 83.4329 117.567C84.4717 117.121 84.9912 115.467 84.1277 114.696C84.0259 114.606 83.9052 114.527 83.7639 114.465Z" fill="#006CB7" fill-opacity="0.05"/>
<path d="M89.5793 13.5723C89.7555 14.0388 89.986 14.4421 90.2593 14.7858C92.5815 17.7071 98.0018 16.3356 99.6283 13.0728C103.072 6.16383 86.4265 5.22583 89.5793 13.5723Z" fill="#00AF4D" fill-opacity="0.05"/>
<path d="M2.94425 35.2541C7.5865 34.4873 3.431 26.9538 0 28.4196V34.5621C0.8865 35.1271 1.9525 35.4178 2.94425 35.2541Z" fill="#006CB7" fill-opacity="0.05"/>
<path d="M123.53 29.7484C123.337 30.0404 123.203 30.3372 123.12 30.6337C122.691 32.1634 123.631 33.6902 125 34.5624V28.4199C124.483 28.6409 123.982 29.0644 123.53 29.7487V29.7484Z" fill="#006CB7" fill-opacity="0.05"/>
<path d="M118.038 48.7068C114.59 43.4843 108.281 53.3303 113.623 54.2128C116.146 54.6296 119.154 52.1128 118.448 49.5921C118.365 49.2953 118.23 48.9988 118.038 48.7068Z" fill="#DD1A21" fill-opacity="0.05"/>
<path d="M15.2681 20.3611C14.9711 20.8108 14.7639 21.2681 14.6361 21.7251C13.5489 25.6086 18.1821 29.4861 22.0691 28.8441C30.2996 27.4846 20.5801 12.3151 15.2684 20.3613L15.2681 20.3611Z" fill="#FFCD03" fill-opacity="0.05"/>
<path d="M27.2326 109.54C27.4246 109.832 27.6438 110.073 27.8833 110.267C29.9191 111.912 33.4203 110.145 34.0356 107.664C35.3383 102.408 23.8001 104.307 27.2326 109.54Z" fill="#00AF4D" fill-opacity="0.05"/>
<path d="M53.185 71.3826C53.2783 71.5246 53.3848 71.6416 53.501 71.7359C54.4898 72.5351 56.1905 71.6771 56.4893 70.4714C57.122 67.9186 51.5175 68.8411 53.1848 71.3826H53.185Z" fill="#00AF4D" fill-opacity="0.05"/>
<path d="M109.02 6.17461C109.113 6.31661 109.22 6.43361 109.336 6.52786C110.325 7.32711 112.025 6.46911 112.324 5.26336C112.957 2.71061 107.352 3.63311 109.02 6.17461H109.02Z" fill="#00AF4D" fill-opacity="0.05"/>
<path d="M37.145 65.3411C37.2382 65.4831 37.3447 65.6001 37.461 65.6944C38.4497 66.4936 40.1505 65.6356 40.4492 64.4299C41.082 61.8771 35.4775 62.7996 37.1447 65.3411H37.145Z" fill="#00AF4D" fill-opacity="0.05"/>
<path d="M57.3525 101.591C57.4457 101.733 57.5522 101.85 57.6685 101.945C58.6572 102.744 60.358 101.886 60.6567 100.68C61.2895 98.1274 55.685 99.0499 57.3522 101.591H57.3525Z" fill="#00AF4D" fill-opacity="0.05"/>
<path d="M75.685 39.0911C75.7783 39.2331 75.8848 39.3501 76.001 39.4444C76.9898 40.2436 78.6905 39.3856 78.9893 38.1799C79.622 35.6271 74.0175 36.5496 75.6848 39.0911H75.685Z" fill="#00AF4D" fill-opacity="0.05"/>
<path d="M93.5217 98.977C93.6727 99.2072 93.8452 99.3967 94.0339 99.5492C95.6362 100.844 98.3914 99.454 98.8757 97.5007C99.9009 93.3647 90.8204 94.8595 93.5219 98.9772L93.5217 98.977Z" fill="#00AF4D" fill-opacity="0.05"/>
<path d="M77.17 3.87953C76.8297 3.96103 76.529 4.08578 76.2655 4.24578C74.0282 5.60453 74.5052 9.49678 76.6325 10.916C81.1367 13.9208 83.2555 2.42078 77.17 3.87953Z" fill="#006CB7" fill-opacity="0.05"/>
<path d="M48.1211 109.723C47.8439 109.589 47.5326 109.493 47.1861 109.444C40.9899 108.568 44.1879 119.816 48.3874 116.398C50.3706 114.784 50.4771 110.864 48.1211 109.723Z" fill="#DD1A21" fill-opacity="0.05"/>
<path d="M102.467 57.5693C100.986 58.7801 100.914 61.7126 102.678 62.5618C102.885 62.6618 103.119 62.7328 103.378 62.7688C108.014 63.4136 105.603 55.0053 102.467 57.5691V57.5693Z" fill="#FFCD03" fill-opacity="0.05"/>
<path d="M82.1532 24.4909C79.7627 20.8699 75.3884 27.6967 79.0927 28.3084C80.8419 28.5974 82.9272 26.8524 82.4377 25.1047C82.3802 24.8989 82.2869 24.6932 82.1532 24.4909Z" fill="#DD1A21" fill-opacity="0.05"/>
<path d="M48.8216 18.6579C46.4311 15.0369 42.0569 21.8637 45.7611 22.4754C47.5104 22.7644 49.5956 21.0194 49.1061 19.2717C49.0486 19.0659 48.9554 18.8602 48.8216 18.6579Z" fill="#DD1A21" fill-opacity="0.05"/>
<path d="M31.8714 92.3653C30.0496 89.6058 26.7161 94.8083 29.5389 95.2745C30.8719 95.4948 32.4611 94.1648 32.0881 92.833C32.0441 92.6763 31.9731 92.5195 31.8714 92.3653Z" fill="#DD1A21" fill-opacity="0.05"/>
<path d="M7.9114 79.4485C6.08965 76.689 2.75615 81.8916 5.5789 82.3578C6.9119 82.5781 8.50115 81.248 8.12815 79.9163C8.08415 79.7595 8.01315 79.6028 7.9114 79.4485Z" fill="#DD1A21" fill-opacity="0.05"/>
<path d="M9.14749 24.6985C5.85399 24.4043 7.84674 30.253 9.96999 28.3355C10.9727 27.43 10.9225 25.3585 9.64824 24.8203C9.49824 24.757 9.33149 24.7148 9.14724 24.6985H9.14749Z" fill="#00AF4D" fill-opacity="0.05"/>
<path d="M117.286 24.4485C115.465 21.689 112.131 26.8915 114.954 27.3578C116.287 27.578 117.876 26.248 117.503 24.9163C117.459 24.7595 117.388 24.6028 117.286 24.4485Z" fill="#DD1A21" fill-opacity="0.05"/>
<path d="M18.3279 7.7818C16.5062 5.0223 13.1727 10.2248 15.9954 10.6911C17.3284 10.9113 18.9176 9.5813 18.5446 8.24955C18.5006 8.0928 18.4297 7.93605 18.3279 7.7818Z" fill="#DD1A21" fill-opacity="0.05"/>
<path d="M48.1019 58.1488C47.7719 59.459 48.9656 61.1528 50.3239 60.8915C50.4836 60.8608 50.6459 60.803 50.8081 60.7143C53.7091 59.1275 48.8006 55.3743 48.1021 58.1488H48.1019Z" fill="#DD1A21" fill-opacity="0.05"/>
<path d="M63.3264 78.5897C63.3919 79.075 63.5234 79.5117 63.7089 79.901C65.2854 83.2085 70.7737 83.0937 73.0502 80.3315C77.8709 74.4827 62.1537 69.9085 63.3264 78.5897Z" fill="#DD1A21" fill-opacity="0.05"/>
<path d="M120.023 71.5291C114.964 63.8661 105.708 78.3131 113.546 79.6081C117.248 80.2196 121.661 76.5266 120.625 72.8281C120.504 72.3929 120.306 71.9576 120.023 71.5291Z" fill="#00AF4D" fill-opacity="0.05"/>
<path d="M123.663 118.498C120.215 113.276 113.906 123.122 119.248 124.004C121.771 124.421 124.779 121.904 124.073 119.384C123.99 119.087 123.855 118.79 123.663 118.498Z" fill="#FFCD03" fill-opacity="0.05"/>
<path d="M79.9439 97.5314C79.6956 97.3492 79.4066 97.1987 79.0749 97.0877C73.1399 95.1039 74.2476 106.745 78.9969 104.144C81.2396 102.916 82.0541 99.0799 79.9439 97.5314Z" fill="#FFCD03" fill-opacity="0.05"/>
<path d="M1.10969 45.8382C0.945194 46.0987 0.815194 46.3972 0.727694 46.7359C-0.836806 52.7952 10.6984 50.8769 7.77244 46.3209C6.39044 44.1694 2.50719 43.6247 1.10969 45.8379V45.8382Z" fill="#FFCD03" fill-opacity="0.05"/>
<path d="M21.0526 110.293C20.9031 110.184 20.7293 110.093 20.5298 110.026C16.9598 108.833 17.6263 115.835 20.4828 114.271C21.8318 113.532 22.3218 111.225 21.0526 110.293V110.293Z" fill="#FFCD03" fill-opacity="0.05"/>
<path d="M59.1776 51.96C59.0281 51.8505 58.8543 51.7598 58.6548 51.693C55.0848 50.4998 55.7513 57.5018 58.6078 55.9375C59.9568 55.1988 60.4468 52.8913 59.1776 51.9598V51.96Z" fill="#FFCD03" fill-opacity="0.05"/>
<path d="M78.5526 67.3766C78.4031 67.2671 78.2293 67.1763 78.0298 67.1095C74.4598 65.9163 75.1263 72.9183 77.9828 71.354C79.3318 70.6153 79.8218 68.3078 78.5526 67.3763V67.3766Z" fill="#FFCD03" fill-opacity="0.05"/>
<path d="M46.9948 4.33585C47.9633 5.5306 50.3213 5.59935 51.0101 4.1836C51.0911 4.0171 51.1491 3.82985 51.1791 3.6216C51.7133 -0.104396 44.9441 1.80585 46.9948 4.33585Z" fill="#FFCD03" fill-opacity="0.05"/>
<path d="M35.3978 28.833C35.0738 28.9652 34.7953 29.134 34.5593 29.332C32.5535 31.0137 33.6148 34.789 35.9323 35.8697C40.8395 38.1577 41.192 26.4695 35.3978 28.833Z" fill="#00AF4D" fill-opacity="0.05"/>
<path d="M27.7546 1.999C27.7526 2.1865 27.7446 2.381 27.7344 2.5805C27.6479 4.26525 27.3891 6.2935 28.9489 7.344C30.4916 8.38275 32.6614 7.493 33.6761 6.117C34.7416 4.67225 33.5281 2.88825 32.6449 1.6885C32.2234 1.11575 31.7741 0.56375 31.3411 0H27.6761C27.6846 0.07925 27.6924 0.15725 27.6971 0.2315C27.7329 0.81975 27.7614 1.40975 27.7546 1.99925V1.999Z" fill="#DD1A21" fill-opacity="0.05"/>
<path d="M33.7657 2.45166C33.6577 2.78616 34.3007 3.75791 34.4347 4.13066C34.6439 4.71166 34.7417 5.17916 34.4562 5.75341C33.5777 7.52116 31.6324 8.61991 29.6919 8.14966C29.0154 7.98566 28.4377 7.64216 28.0477 7.05641C27.8399 6.74441 27.6884 6.38766 27.5792 6.03016C27.4354 5.55991 27.4952 5.00166 27.1772 4.59916C26.9234 5.02141 26.7499 5.48966 26.6797 5.96316C26.5524 6.81991 26.7627 7.69416 27.4449 8.34516C28.3957 9.25241 29.8484 9.42516 31.0947 9.20616C32.7644 8.91266 34.4312 8.00766 35.2154 6.45191C35.9064 5.08166 35.6692 2.71466 33.7654 2.45166H33.7657Z" fill="#DD1A21" fill-opacity="0.05"/>
<path d="M35.4943 6.91975C34.4338 8.6395 32.6041 9.58925 30.6296 9.74675C28.8003 9.89275 27.4106 9.1525 26.3086 7.72525C26.3568 8.26375 26.6233 8.812 26.8913 9.27575C27.3646 10.0948 28.2776 10.6337 29.1521 10.9512C29.6523 11.1328 30.1858 11.1772 30.7141 11.1587C32.5653 11.0942 34.3263 10.3807 35.5368 8.951C35.7018 8.75625 35.8523 8.54625 35.9866 8.325C36.8011 6.97975 37.0001 5.2125 36.0211 3.875C36.1521 4.94725 36.0743 5.97925 35.4946 6.9195L35.4943 6.91975Z" fill="#DD1A21" fill-opacity="0.05"/>
<path d="M33.5959 16.8207C32.9924 16.1087 31.6694 15.9697 31.1676 15.2122C30.8859 14.7867 31.0826 14.1752 31.2064 13.7232C31.3176 13.317 31.6651 12.005 30.9591 12.909C30.5064 13.489 30.2766 14.9815 30.7706 15.5805C31.3454 16.2772 32.5434 16.4547 33.1929 17.13C32.5796 17.38 31.1039 18.309 31.7349 19.1325C32.2141 19.758 33.2984 19.5355 33.6429 18.9172C33.8999 18.4562 33.9821 17.6672 33.7736 17.1295C33.7284 17.0127 33.6694 16.9077 33.5956 16.8207H33.5959ZM32.9404 18.9667C32.9009 18.9822 32.8621 18.9932 32.8249 19C32.4874 19.0605 32.2464 18.7767 32.3016 18.426C32.3641 18.0305 33.0301 17.6997 33.3689 17.648C33.4136 18.0315 33.3856 18.7912 32.9404 18.9667Z" fill="#FFCD03" fill-opacity="0.05"/>
<path d="M44.9343 10.4825C44.0373 8.93022 42.8728 10.131 41.891 10.9187C41.326 11.3722 39.7463 12.919 39.0243 12.7332C38.5775 12.6182 36.6063 9.27497 36.2563 9.98572C35.9873 10.5317 38.3915 13.1987 38.9563 13.3105C39.9423 13.5055 41.719 11.6667 42.4288 11.1545C42.4023 12.3315 42.6473 12.8362 43.9243 12.501C44.8325 12.2625 45.3638 11.791 45.1618 11.0132C45.1193 10.85 45.0448 10.6732 44.9343 10.4822V10.4825ZM44.323 11.8127C44.2618 11.8585 44.1663 11.9082 44.0533 11.9542C43.7013 12.0972 43.178 12.2022 42.9825 12.0225C42.3368 11.4282 43.0453 10.2847 43.8508 10.41C44.5723 10.5222 44.9848 11.319 44.323 11.8127Z" fill="#FFCD03" fill-opacity="0.05"/>
<path d="M21.5066 1.96074C21.6851 2.81424 23.4423 3.60199 24.0146 4.14824C23.7078 4.43349 22.5243 4.80849 22.3981 5.16824C22.1268 5.94074 23.3456 5.15949 23.5193 5.04674C23.4606 5.35899 23.3448 6.69674 23.8941 5.97649C24.0388 5.78649 23.9468 5.20599 24.0676 4.94774C24.1741 4.72024 24.6491 4.39549 24.6558 4.16874C24.6776 3.43474 23.3351 2.93599 22.8478 2.60624C22.5036 2.37324 22.0238 2.13674 22.1783 1.68899C22.3213 1.27499 23.0963 1.10374 23.4318 0.910244C23.6686 0.773744 24.8451 0.296244 25.4368 0.000244141H24.0841C23.7971 0.140494 23.5686 0.267244 23.4986 0.308744C22.9953 0.607494 21.3646 1.28074 21.5068 1.96074H21.5066Z" fill="#FFCD03" fill-opacity="0.05"/>
<path d="M89.483 2.93599C89.0853 3.20274 88.2355 2.87649 87.9618 3.40799C87.661 3.99174 88.6368 4.36324 89.0958 4.40524C90.3553 4.52024 90.568 1.79149 90.6048 0.835744C90.6185 0.478744 90.6115 0.217994 90.6698 0.000244141H90.0863C90.07 0.0652441 90.0558 0.131744 90.0468 0.202744C89.9373 1.07449 90.3678 2.34324 89.483 2.93624V2.93599ZM88.933 3.82799C88.851 3.80674 88.444 3.72624 88.3938 3.63699C88.378 3.60874 89.1355 3.52799 89.281 3.52649C89.383 3.52549 89.4725 3.51924 89.5533 3.50849C89.4673 3.75924 89.3103 3.92549 88.933 3.82799Z" fill="#DD1A21" fill-opacity="0.05"/>
<path d="M102.624 5.0655C102.936 6.82975 105.686 5.22275 104.754 4.13525C104.453 3.784 103.896 3.80375 103.547 3.512C103.467 3.4455 103.399 3.37275 103.34 3.295C103.111 2.99175 103.03 2.61275 102.995 2.22475C102.931 1.514 103.116 0.73675 103.092 0H102.626C102.964 1.60175 102.349 3.50925 102.624 5.0655ZM103.095 3.9865C103.656 3.93475 105.057 4.53 104.139 5.14425C104.013 5.22825 103.899 5.27475 103.797 5.2905C103.232 5.37825 103.015 4.53875 103.095 3.9865H103.095Z" fill="#DD1A21" fill-opacity="0.05"/>
<path d="M29.3266 122.993C28.9271 123.18 28.5688 123.276 28.1606 123.423C27.8813 123.523 27.732 123.66 27.66 123.951C27.5805 124.273 27.6373 124.655 27.6745 125H31.3395C31.2125 124.834 31.0866 124.668 30.9636 124.5C30.5141 123.884 30.2533 122.557 29.3266 122.992V122.993Z" fill="#DD1A21" fill-opacity="0.05"/>
<path d="M27.4015 118.22C26.3948 118.446 25.622 119.395 25.5383 120.414C25.3528 122.683 28.2617 123.892 29.7655 122.2C30.416 121.469 30.559 120.358 30.1395 119.478C29.6785 118.511 28.4265 117.989 27.4017 118.22H27.4015Z" fill="#DD1A21" fill-opacity="0.05"/>
<path d="M39.3373 116.431C38.8846 116.479 38.0133 116.826 37.8551 116.889C37.9686 116.623 38.7266 115.807 38.7081 115.578C38.6433 114.779 37.8618 115.945 37.7603 116.089C37.9108 115.876 37.4366 114.55 37.0181 114.807C36.6303 115.045 37.3041 116.841 37.2043 117.279C36.9863 118.236 36.4583 119.126 36.1678 120.065C35.9358 120.815 35.9408 121.734 35.1163 121.979C34.2883 122.225 33.1858 122.058 32.3216 122.123C32.1316 122.137 31.4178 122.08 31.5461 122.488C31.6448 122.802 32.3073 122.608 32.5641 122.596C33.4576 122.555 34.6878 122.749 35.5328 122.426C36.2383 122.156 36.2821 121.482 36.4543 120.826C36.6961 119.905 37.0483 118.964 37.4541 118.102C37.6353 117.717 37.7556 117.513 38.1248 117.31C38.3983 117.159 39.2801 116.991 39.4471 116.804C39.7326 116.483 39.6121 116.402 39.3373 116.431V116.431Z" fill="#FFCD03" fill-opacity="0.05"/>
<path d="M25.7782 124.781C25.7977 124.605 25.7022 124.529 25.5402 124.519C25.1985 124.498 24.5605 124.767 24.084 125H25.4367C25.6392 124.899 25.774 124.819 25.778 124.781H25.7782Z" fill="#FFCD03" fill-opacity="0.05"/>
<path d="M99.0385 111.001C98.8277 110.269 99.0385 108.933 98.0185 109.023C97.579 109.062 97.2097 109.029 96.7757 109.027C96.479 109.025 96.292 109.102 96.1242 109.352C95.8967 109.69 95.8315 110.185 95.718 110.566C95.5497 111.131 95.3737 111.695 95.1652 112.246C95.0987 112.422 95.0247 112.602 94.9467 112.785C94.287 114.338 93.3477 116.154 94.452 117.676C95.5442 119.182 97.8877 119.091 99.3132 118.147C100.81 117.156 100.283 115.064 99.865 113.634C99.6072 112.751 99.2927 111.885 99.0385 111.001V111.001Z" fill="#00AF4D" fill-opacity="0.05"/>
<path d="M97.8485 103.879C96.8253 103.746 95.7735 104.373 95.345 105.301C94.392 107.368 96.709 109.502 98.702 108.43C99.564 107.966 100.08 106.972 99.9878 106.001C99.8868 104.935 98.89 104.015 97.8485 103.879Z" fill="#00AF4D" fill-opacity="0.05"/>
<path d="M100.658 114.735C100.442 115.012 100.712 116.146 100.71 116.542C100.707 117.159 100.638 117.632 100.173 118.073C98.7412 119.432 96.5367 119.796 94.8759 118.688C94.2969 118.302 93.8722 117.781 93.7069 117.097C93.6189 116.733 93.5992 116.346 93.6192 115.972C93.6457 115.481 93.8934 114.977 93.7329 114.49C93.3497 114.8 93.0259 115.18 92.7974 115.6C92.3837 116.361 92.2809 117.255 92.6984 118.1C93.2799 119.279 94.5851 119.94 95.8306 120.162C97.4996 120.46 99.3759 120.182 100.647 118.99C101.766 117.94 102.356 115.636 100.658 114.735L100.658 114.735Z" fill="#00AF4D" fill-opacity="0.05"/>
<path d="M100.745 119.525C99.158 120.776 97.1135 121.04 95.2048 120.51C93.4365 120.02 92.3855 118.847 91.8403 117.128C91.7008 117.651 91.763 118.257 91.8553 118.785C92.0185 119.717 92.691 120.536 93.4035 121.135C93.811 121.477 94.2968 121.702 94.7993 121.866C96.5603 122.441 98.459 122.375 100.087 121.448C100.309 121.322 100.522 121.176 100.724 121.014C101.951 120.031 102.745 118.439 102.284 116.847C102.039 117.899 101.612 118.841 100.745 119.525Z" fill="#00AF4D" fill-opacity="0.05"/>
<path d="M91.306 124.316C92.018 123.92 92.83 123.59 93.4682 123.075C93.9612 122.677 93.8642 122.585 93.583 122.633C93.3212 122.679 92.8995 122.847 92.6457 123.004C91.719 123.579 90.3682 123.859 90.0854 125H90.669C90.7385 124.74 90.9007 124.541 91.306 124.316Z" fill="#DD1A21" fill-opacity="0.05"/>
<path d="M99.9692 122.755C99.5852 123.188 100.713 123.468 100.942 123.527C101.585 123.693 102.155 123.689 102.442 124.387C102.523 124.585 102.582 124.79 102.627 125H103.094C103.083 124.676 103.033 124.36 102.903 124.061C102.702 123.6 100.473 122.186 99.9692 122.755Z" fill="#DD1A21" fill-opacity="0.05"/>
<path d="M103.077 104.248C103.005 103.828 102.986 103.592 103.172 103.214C103.309 102.933 103.936 102.29 103.965 102.041C104.015 101.614 103.87 101.617 103.661 101.798C103.318 102.097 102.803 102.881 102.71 103.024C102.65 102.741 102.803 101.638 102.657 101.461C102.146 100.844 102.174 102.247 102.173 102.423C102.174 102.162 101.026 101.348 100.83 101.799C100.649 102.216 102.23 103.3 102.4 103.716C102.771 104.626 102.848 105.658 103.149 106.593C103.389 107.341 103.92 108.09 103.385 108.764C102.848 109.44 101.849 109.936 101.178 110.485C101.03 110.606 100.413 110.968 100.752 111.229C101.013 111.43 101.444 110.89 101.648 110.733C102.356 110.187 103.475 109.641 103.982 108.891C104.406 108.266 104.055 107.689 103.82 107.053C103.49 106.16 103.239 105.187 103.077 104.248H103.077Z" fill="#DD1A21" fill-opacity="0.05"/>
<path d="M92.99 108.732C92.4423 108.697 91.1345 109.411 90.9483 109.522C90.445 109.82 88.8143 110.494 88.9565 111.174C89.135 112.027 90.8923 112.815 91.4645 113.361C91.1578 113.646 89.9743 114.021 89.848 114.381C89.5768 115.154 90.7955 114.372 90.9693 114.26C90.9105 114.572 90.7948 115.91 91.344 115.189C91.4888 114.999 91.3968 114.419 91.5175 114.161C91.624 113.933 92.099 113.608 92.1058 113.382C92.1275 112.648 90.785 112.149 90.2978 111.819C89.9535 111.586 89.4738 111.35 89.6283 110.902C89.7713 110.488 90.5463 110.317 90.8818 110.123C91.1995 109.94 93.2115 109.142 93.228 108.994C93.2475 108.818 93.152 108.742 92.99 108.732Z" fill="#DD1A21" fill-opacity="0.05"/>
<path d="M106.634 25.2534C106.288 24.7759 105.971 24.2776 105.661 23.7766C105.451 23.4384 105.259 22.9774 104.951 22.7106C104.724 22.5141 104.523 22.4886 104.237 22.5676C103.819 22.6831 103.471 22.8119 103.036 22.8894C102.028 23.0689 102.581 24.3029 102.569 25.0651C102.555 25.9844 102.478 26.9024 102.46 27.8219C102.431 29.3114 102.47 31.4684 104.174 32.0336C105.796 32.5719 108.082 32.0466 108.743 30.3079C109.41 28.5499 108.029 27.0426 106.986 25.7166C106.862 25.5596 106.744 25.4054 106.634 25.2534Z" fill="#006CB7" fill-opacity="0.05"/>
<path d="M101.854 17.8805C100.884 18.284 100.163 19.4328 100.344 20.4883C100.509 21.4488 101.267 22.2735 102.221 22.4958C104.425 23.0093 106.103 20.3433 104.642 18.5973C103.986 17.8138 102.807 17.484 101.854 17.8805Z" fill="#006CB7" fill-opacity="0.05"/>
<path d="M108.604 27.0447C108.577 27.5567 108.947 27.9782 109.101 28.4452C109.218 28.8002 109.301 29.1789 109.311 29.5537C109.331 30.2572 109.057 30.8712 108.599 31.3954C107.286 32.8992 105.063 33.1244 103.325 32.1877C102.761 31.8834 102.571 31.4452 102.407 30.8499C102.301 30.4682 102.265 29.3034 101.984 29.0927C100.581 30.4062 101.753 32.4759 103.108 33.1964C104.646 34.0144 106.53 33.7917 108.063 33.0677C109.207 32.5274 110.294 31.5479 110.547 30.2584C110.728 29.3329 110.396 28.4977 109.797 27.8714C109.467 27.5254 109.055 27.2429 108.604 27.0444V27.0447Z" fill="#006CB7" fill-opacity="0.05"/>
<path d="M111.121 29.0962C111.045 30.8977 110.337 32.3044 108.759 33.2407C107.055 34.2514 105.013 34.5317 103.154 33.7392C102.138 33.3059 101.479 32.5079 100.967 31.5567C100.94 33.2139 102.122 34.5424 103.564 35.1712C103.801 35.2747 104.045 35.3592 104.292 35.4229C106.106 35.8919 107.956 35.4587 109.505 34.4429C109.947 34.1532 110.357 33.8089 110.661 33.3722C111.192 32.6082 111.626 31.6412 111.54 30.6992C111.491 30.1657 111.393 29.5642 111.121 29.0964V29.0962Z" fill="#006CB7" fill-opacity="0.05"/>
<path d="M106.643 41.0728C105.974 40.6653 105.656 40.5721 105.658 39.7196C105.659 38.9048 105.766 38.0348 105.627 37.2266C105.52 36.6023 105.392 36.6418 105.297 36.9113C105.209 37.1621 105.151 37.6121 105.164 37.9106C105.218 39.0621 104.75 40.4676 105.818 41.2518C106.526 41.7721 107.843 42.0143 107.93 43.0758C107.969 43.5531 107.271 44.1363 107.601 44.6343C107.965 45.1813 108.764 44.5101 109.024 44.1298C109.738 43.0858 107.459 41.5708 106.642 41.0731L106.643 41.0728ZM108.442 43.9906C108.383 44.0518 108.114 44.3681 108.012 44.3686C107.98 44.3686 108.278 43.6678 108.348 43.5398C108.397 43.4503 108.435 43.3691 108.465 43.2933C108.642 43.4906 108.711 43.7088 108.442 43.9906Z" fill="#DD1A21" fill-opacity="0.05"/>
<path d="M119.106 36.8626C118.658 36.7473 118.214 37.0828 117.76 37.0438C117.657 37.0348 117.559 37.0146 117.466 36.9846C117.105 36.8673 116.821 36.6038 116.57 36.3058C115.908 35.5201 115.59 34.3246 114.679 33.7671C114.25 33.5046 111.613 33.6241 111.527 34.3788C111.461 34.9541 112.545 34.5363 112.767 34.4536C113.389 34.2213 113.853 33.8906 114.489 34.2986C116.043 35.2961 116.631 37.5821 117.895 38.8458C119.161 40.1126 120.493 37.2193 119.106 36.8626H119.106ZM119.181 38.0413C119.126 38.1823 119.06 38.2856 118.985 38.3573C118.572 38.7533 117.913 38.1901 117.662 37.6913C118.091 37.3278 119.581 37.0118 119.181 38.0413Z" fill="#DD1A21" fill-opacity="0.05"/>
<path d="M98.9937 25.6725C98.0994 25.6935 96.8739 25.4718 96.0217 25.7758C95.3104 26.0295 95.2514 26.702 95.0644 27.354C94.8022 28.2693 94.4287 29.2023 94.0034 30.055C93.8134 30.436 93.6887 30.637 93.3149 30.8323C93.0382 30.9768 92.1527 31.1248 91.9817 31.3085C91.6889 31.6228 91.8077 31.7063 92.0829 31.6833C92.5367 31.6455 93.4154 31.3185 93.5752 31.259C93.4557 31.522 92.6797 32.321 92.6929 32.5495C92.7397 33.3498 93.5472 32.202 93.6519 32.0605C93.4967 32.27 93.9409 33.6058 94.3652 33.3585C94.7582 33.1293 94.1252 31.3195 94.2347 30.8838C94.4742 29.9313 95.0219 29.0538 95.3337 28.1218C95.5827 27.3773 95.5982 26.4583 96.4282 26.232C97.2614 26.0048 98.3599 26.1968 99.2254 26.151C99.4157 26.141 100.128 26.214 100.009 25.8035C99.9174 25.4865 99.2509 25.6663 98.9939 25.6725H98.9937Z" fill="#DD1A21" fill-opacity="0.05"/>
<path d="M107.158 17.9048C107.366 17.541 108.385 16.8315 108.399 16.4505C108.428 15.6323 107.497 16.7403 107.364 16.8998C107.327 16.5843 107.04 15.2725 106.73 16.1235C106.648 16.3478 106.908 16.8748 106.87 17.1573C106.836 17.406 106.479 17.8575 106.54 18.0758C106.737 18.783 108.167 18.8603 108.73 19.0303C109.128 19.1505 109.657 19.2335 109.642 19.707C109.629 20.145 108.939 20.5385 108.677 20.8233C108.428 21.0928 106.744 22.4525 106.772 22.5988C106.805 22.7725 106.919 22.8165 107.077 22.778C107.61 22.6483 108.647 21.5783 108.792 21.4173C109.184 20.9825 110.541 19.855 110.203 19.248C109.779 18.486 107.867 18.256 107.158 17.9048Z" fill="#DD1A21" fill-opacity="0.05"/>
<path d="M1.63651 92.9462C1.58576 92.7532 1.53826 92.5642 1.49801 92.3812C1.37101 91.8055 1.27826 91.2222 1.19326 90.639C1.13576 90.2452 1.14276 89.7457 0.966256 89.3785C0.836256 89.1077 0.662256 89.0045 0.368256 88.9632C0.241006 88.9452 0.119506 88.931 -0.000244141 88.917V98.615C0.528756 98.5072 1.02201 98.2657 1.42001 97.8572C2.73251 96.5105 2.06501 94.5777 1.63601 92.946L1.63651 92.9462Z" fill="#FFCD03" fill-opacity="0.05"/>
<path d="M2.321 85.4823C2.03075 84.5023 1.0805 83.7303 0.04875 83.7148C0.0325 83.7148 0.01625 83.7161 0 83.7163V88.5621C1.466 88.5256 2.804 87.1178 2.321 85.4823Z" fill="#FFCD03" fill-opacity="0.05"/>
<path d="M3.09501 98.5306C3.63001 97.7538 3.65726 96.8551 3.35776 96.0423C3.19226 95.5931 2.92676 95.1703 2.59201 94.8086C2.36301 95.2673 2.53551 95.8018 2.49076 96.2913C2.45676 96.6636 2.38151 97.0438 2.24176 97.3916C1.97976 98.0446 1.48401 98.4991 0.855506 98.7976C0.576756 98.9301 0.289756 99.0216 -0.000244141 99.0831V100.1C1.17776 99.9998 2.40826 99.5268 3.09476 98.5301L3.09501 98.5306Z" fill="#FFCD03" fill-opacity="0.05"/>
<path d="M1.958 101.431C2.74925 100.941 3.533 100.227 3.829 99.3286C3.99675 98.8199 4.14575 98.2286 4.083 97.6919C3.2955 99.3139 2.08625 100.323 0.26575 100.553C0.17725 100.564 0.0885 100.572 0 100.58V102.017C0.15725 102 0.3145 101.98 0.4715 101.953C0.99225 101.863 1.5055 101.71 1.958 101.43V101.431Z" fill="#FFCD03" fill-opacity="0.05"/>
<path d="M5.65409 109.735C4.87684 109.374 3.99609 109.241 3.14859 109.197C2.19184 109.147 2.02934 109.198 1.77059 108.236C1.56584 107.473 1.17959 106.751 1.20909 105.945C1.22134 105.608 1.90084 103.133 1.18209 103.551C1.14284 103.573 1.10784 103.605 1.07659 103.645C0.775344 104.029 0.825594 105.126 0.772844 105.506C0.631594 106.523 1.00934 107.296 1.27609 108.258C1.64434 109.585 2.85384 110.949 4.30184 111.131C5.30759 111.258 7.46734 110.575 5.65409 109.735ZM4.47284 110.562C4.16159 110.496 3.85634 110.396 3.56709 110.263C3.23534 110.111 2.92484 109.914 2.65034 109.672C3.19259 109.624 5.41609 109.597 5.65934 110.281C5.86284 110.854 4.76909 110.625 4.47284 110.562Z" fill="#00AF4D" fill-opacity="0.05"/>
<path d="M9.93836 96.8938C10.1381 96.799 11.0354 96.3728 10.3976 96.1623C10.1841 96.0918 9.63386 96.4995 9.42136 96.6305C9.41161 96.6365 9.40161 96.6428 9.39336 96.6475C8.96261 96.0555 8.78986 95.3138 8.44261 94.6733C8.03611 93.9233 7.46786 93.2893 6.85286 92.7045C6.19511 92.079 5.50361 91.4848 4.78661 90.9293C4.51661 90.72 2.85986 89.1293 3.26036 90.2825C3.54236 91.0945 4.90511 91.599 5.51186 92.1433C6.41236 92.9513 7.33136 93.7615 7.95036 94.8133C8.47011 95.6965 8.94536 96.6293 9.42136 97.5388C9.46961 97.631 9.51811 97.7245 9.56661 97.8163C9.67261 98.0173 9.97686 98.997 10.3421 98.6695C10.6149 98.425 10.0494 97.7088 9.92361 97.457C10.1531 97.5315 11.6096 97.9005 12.0766 97.7688C12.2204 97.7283 12.2704 97.6403 12.1624 97.4818C11.8806 97.0688 10.4056 97.2385 9.93861 96.8938H9.93836Z" fill="#00AF4D" fill-opacity="0.05"/>
<path d="M124.139 88.7804C123.143 88.5436 123.159 89.8959 122.845 90.5904C122.466 91.4279 122.03 92.2394 121.647 93.0759C121.028 94.4306 120.204 96.4249 121.542 97.6216C122.426 98.4119 123.805 98.8584 125 98.6151V88.9171C124.715 88.8839 124.442 88.8526 124.14 88.7806L124.139 88.7804Z" fill="#FFCD03" fill-opacity="0.05"/>
<path d="M122.626 85.5061C122.395 86.4531 122.762 87.5113 123.548 88.0946C124.004 88.4328 124.509 88.5743 125 88.5621V83.7163C123.964 83.7243 122.876 84.4816 122.626 85.5061Z" fill="#FFCD03" fill-opacity="0.05"/>
<path d="M120.704 97.4252C120.307 96.9215 120.307 96.4437 120.394 95.8325C120.449 95.4405 120.88 94.3577 120.706 94.0522C118.896 94.6985 119.147 97.064 120.103 98.2642C121.189 99.627 123.005 100.172 124.7 100.119C124.8 100.115 124.9 100.109 125.001 100.1V99.0835C123.417 99.4197 121.736 98.7365 120.704 97.4252Z" fill="#FFCD03" fill-opacity="0.05"/>
<path d="M119.927 98.779C119.168 97.977 118.881 96.9825 118.79 95.9062C118.105 97.4155 118.661 99.105 119.733 100.255C119.909 100.445 120.1 100.62 120.301 100.777C121.651 101.83 123.329 102.201 125.001 102.017V100.58C123.124 100.748 121.254 100.18 119.927 98.7792V98.779Z" fill="#FFCD03" fill-opacity="0.05"/>
<path d="M120.324 103.011C120.293 102.971 120.258 102.939 120.218 102.916C119.5 102.499 120.179 104.974 120.191 105.311C120.221 106.116 119.835 106.839 119.63 107.602C119.371 108.564 119.209 108.513 118.252 108.563C117.404 108.607 116.524 108.74 115.746 109.1C113.933 109.941 116.093 110.623 117.099 110.497C118.547 110.315 119.756 108.95 120.124 107.623C120.391 106.662 120.769 105.889 120.628 104.871C120.575 104.492 120.625 103.394 120.324 103.011V103.011ZM117.833 109.629C117.544 109.762 117.239 109.861 116.928 109.928C116.631 109.991 115.538 110.219 115.741 109.647C115.984 108.962 118.208 108.989 118.75 109.038C118.476 109.28 118.165 109.477 117.833 109.629Z" fill="#00AF4D" fill-opacity="0.05"/>
<path d="M118.284 91.3884C117.517 91.7936 116.763 92.2214 115.982 92.6029C114.616 93.2709 113.232 93.6666 113.572 95.4319C113.722 96.2059 114.049 96.9579 114.168 97.7324C114.244 98.2286 113.979 98.7111 114.041 99.2019C114.129 99.8976 114.613 99.5801 114.623 99.5974C115.36 100.916 115.378 99.1206 115.194 98.5204C115.484 98.5794 117.503 99.3261 117.383 98.7211C117.303 98.3169 115.146 97.9739 114.75 97.9516C114.267 96.4096 113.333 94.5649 115.078 93.5846C116.337 92.8776 117.979 92.4446 119.094 91.5494C119.122 91.5269 119.147 91.5054 119.17 91.4851C119.791 90.9404 118.743 91.1459 118.284 91.3884H118.284Z" fill="#00AF4D" fill-opacity="0.05"/>
<path d="M95.062 72.7085C94.99 72.417 94.8408 72.2805 94.5615 72.18C94.1533 72.033 93.795 71.9375 93.3955 71.75C92.4688 71.315 92.208 72.6418 91.7585 73.2575C91.2163 74 90.6238 74.7053 90.0785 75.446C89.1953 76.6458 87.982 78.4298 89.0473 79.8745C90.062 81.2505 92.2318 82.1405 93.7745 81.1015C95.3343 80.051 95.0758 78.0228 94.989 76.338C94.9788 76.1388 94.971 75.944 94.9688 75.7565C94.962 75.167 94.9905 74.577 95.0263 73.9888C95.0505 73.5915 95.1593 73.104 95.0615 72.7085H95.062Z" fill="#DD1A21" fill-opacity="0.05"/>
<path d="M95.3215 66.9768C94.2965 66.7468 93.0445 67.2685 92.5838 68.2353C92.1643 69.115 92.3073 70.226 92.9578 70.9575C94.4615 72.6488 97.3703 71.4398 97.185 69.171C97.101 68.1523 96.3285 67.2028 95.3218 66.9768H95.3215Z" fill="#DD1A21" fill-opacity="0.05"/>
<path d="M95.5462 78.356C95.2284 78.7585 95.2879 79.3167 95.1442 79.787C95.0349 80.1445 94.8834 80.5012 94.6757 80.8132C94.2857 81.399 93.7079 81.7427 93.0314 81.9065C91.0912 82.3767 89.1457 81.278 88.2672 79.5102C87.9817 78.936 88.0794 78.4685 88.2887 77.8875C88.4229 77.515 89.0657 76.543 88.9577 76.2085C87.0537 76.4715 86.8167 78.8385 87.5077 80.2087C88.2919 81.7645 89.9587 82.6695 91.6284 82.963C92.8747 83.182 94.3274 83.0092 95.2782 82.102C95.9607 81.4507 96.1707 80.5767 96.0434 79.72C95.9732 79.2465 95.7997 78.7782 95.5459 78.356H95.5462Z" fill="#DD1A21" fill-opacity="0.05"/>
<path d="M92.0941 83.5046C90.1196 83.3471 88.2896 82.3973 87.2293 80.6776C86.6496 79.7373 86.5716 78.7051 86.7028 77.6331C85.7238 78.9706 85.9228 80.7381 86.7373 82.0831C86.8713 82.3046 87.0221 82.5143 87.1871 82.7091C88.3976 84.1388 90.1586 84.8523 92.0098 84.9168C92.5381 84.9353 93.0716 84.8908 93.5718 84.7093C94.4466 84.3918 95.3593 83.8528 95.8326 83.0338C96.1006 82.5701 96.3673 82.0216 96.4153 81.4833C95.3131 82.9103 93.9233 83.6508 92.0943 83.5048L92.0941 83.5046Z" fill="#DD1A21" fill-opacity="0.05"/>
<path d="M91.5185 87.4807C91.6422 87.9327 91.8392 88.5442 91.5572 88.9697C91.0557 89.7269 89.7327 89.8659 89.129 90.5782C89.0552 90.6654 88.9962 90.7702 88.951 90.8869C88.7427 91.4247 88.825 92.2137 89.0817 92.6747C89.4262 93.2929 90.5105 93.5154 90.9897 92.8899C91.6207 92.0664 90.145 91.1374 89.5317 90.8874C90.1812 90.2122 91.3792 90.0349 91.954 89.3379C92.448 88.7389 92.2182 87.2464 91.7655 86.6664C91.0595 85.7622 91.407 87.0742 91.5182 87.4807H91.5185ZM90.4235 92.1834C90.4787 92.5339 90.2377 92.8179 89.9002 92.7574C89.8627 92.7507 89.8242 92.7397 89.7847 92.7242C89.3395 92.5487 89.3115 91.7889 89.3562 91.4054C89.695 91.4572 90.361 91.7879 90.4235 92.1834Z" fill="#006CB7" fill-opacity="0.05"/>
<path d="M83.7 86.4903C82.978 86.6761 81.3982 85.129 80.8332 84.6758C79.8512 83.888 78.6867 82.6873 77.79 84.2396C77.6797 84.4306 77.605 84.6073 77.5625 84.7706C77.3605 85.5483 77.8917 86.0198 78.8 86.2583C80.077 86.5936 80.3222 86.0888 80.2955 84.9118C81.0052 85.424 82.782 87.2628 83.768 87.0678C84.3327 86.956 86.737 84.289 86.468 83.743C86.118 83.0323 84.1467 86.3756 83.7 86.4906V86.4903ZM79.7417 85.7795C79.5462 85.9593 79.023 85.8543 78.671 85.7113C78.5577 85.6653 78.4625 85.6153 78.4012 85.5698C77.7395 85.076 78.152 84.2793 78.8735 84.167C79.679 84.0418 80.3877 85.1853 79.7417 85.7795Z" fill="#006CB7" fill-opacity="0.05"/>
<path d="M90.4012 70.8794C89.5369 70.8144 88.4344 70.9814 87.6064 70.7354C86.7819 70.4904 86.7869 69.5717 86.5549 68.8217C86.2644 67.8829 85.7364 66.9932 85.5184 66.0354C85.4187 65.5974 86.0924 63.8024 85.7046 63.5642C85.2861 63.3072 84.8119 64.6327 84.9624 64.8457C84.8609 64.7019 84.0792 63.5362 84.0147 64.3352C83.9962 64.5634 84.7542 65.3797 84.8677 65.6454C84.7094 65.5824 83.8381 65.2357 83.3854 65.1877C83.1106 65.1587 82.9902 65.2394 83.2757 65.5602C83.4427 65.7477 84.3244 65.9154 84.5979 66.0662C84.9671 66.2697 85.0874 66.4737 85.2687 66.8589C85.6744 67.7209 86.0269 68.6622 86.2684 69.5829C86.4407 70.2389 86.4844 70.9127 87.1899 71.1824C88.0349 71.5054 89.2652 71.3114 90.1589 71.3527C90.4157 71.3644 91.0782 71.5592 91.1769 71.2444C91.3049 70.8367 90.5914 70.8937 90.4014 70.8794H90.4012Z" fill="#006CB7" fill-opacity="0.05"/>
<path d="M99.2256 74.0661C99.0394 73.9554 97.7316 73.2419 97.1839 73.2764C97.0219 73.2866 96.9264 73.3621 96.9459 73.5381C96.9624 73.6864 98.9744 74.4841 99.2921 74.6676C99.6276 74.8611 100.403 75.0324 100.546 75.4464C100.7 75.8941 100.22 76.1304 99.8761 76.3634C99.3886 76.6934 98.0461 77.1919 98.0681 77.9259C98.0749 78.1526 98.5499 78.4774 98.6564 78.7049C98.7771 78.9631 98.6851 79.5436 98.8299 79.7336C99.3791 80.4539 99.2634 79.1161 99.2046 78.8039C99.3784 78.9169 100.597 79.6979 100.326 78.9254C100.2 78.5659 99.0161 78.1909 98.7094 77.9054C99.2819 77.3591 101.039 76.5714 101.217 75.7179C101.36 75.0379 99.7289 74.3646 99.2256 74.0659V74.0661Z" fill="#006CB7" fill-opacity="0.05"/>
<path d="M23.1104 44.9349C22.9017 44.3836 22.7259 43.8196 22.5577 43.2549C22.4439 42.8736 22.3789 42.3784 22.1514 42.0404C21.9837 41.7914 21.7967 41.7141 21.4999 41.7156C21.0659 41.7179 20.6967 41.7511 20.2572 41.7121C19.2374 41.6216 19.4482 42.9574 19.2372 43.6899C18.9829 44.5734 18.6684 45.4391 18.4107 46.3221C17.9932 47.7521 17.4659 49.8441 18.9624 50.8354C20.3879 51.7794 22.7314 51.8704 23.8237 50.3649C24.9282 48.8429 23.9887 47.0266 23.3289 45.4739C23.2509 45.2901 23.1767 45.1101 23.1104 44.9346V44.9349Z" fill="#00AF4D" fill-opacity="0.05"/>
<path d="M20.4262 36.5682C19.3844 36.7039 18.3879 37.6239 18.2869 38.6902C18.1949 39.6604 18.7107 40.6547 19.5727 41.1187C21.5657 42.1909 23.8827 40.0569 22.9297 37.9894C22.5012 37.0614 21.4494 36.4347 20.4262 36.5682Z" fill="#00AF4D" fill-opacity="0.05"/>
<path d="M24.542 47.179C24.3818 47.666 24.6293 48.17 24.6558 48.661C24.6758 49.0342 24.656 49.4212 24.5683 49.7857C24.403 50.4697 23.9783 50.991 23.3993 51.3772C21.7383 52.485 19.534 52.1207 18.102 50.7622C17.6368 50.321 17.5683 49.8482 17.5653 49.2307C17.5633 48.8347 17.8335 47.7012 17.6173 47.4242C15.9193 48.325 16.5093 50.6292 17.6288 51.6792C18.8995 52.871 20.7755 53.1487 22.4448 52.8512C23.6905 52.6292 24.9955 51.968 25.577 50.7895C25.9945 49.9435 25.8918 49.0505 25.478 48.2895C25.2493 47.869 24.9258 47.4887 24.5425 47.1792L24.542 47.179Z" fill="#00AF4D" fill-opacity="0.05"/>
<path d="M23.0687 53.1989C21.16 53.7287 19.1155 53.4649 17.529 52.2139C16.6617 51.5299 16.2342 50.5872 15.9892 49.5352C15.529 51.1274 16.3227 52.7192 17.5495 53.7029C17.7515 53.8649 17.965 54.0102 18.1867 54.1367C19.8147 55.0639 21.7135 55.1294 23.4742 54.5544C23.9767 54.3904 24.4625 54.1654 24.87 53.8232C25.5825 53.2247 26.2547 52.4052 26.4182 51.4732C26.5107 50.9454 26.573 50.3389 26.4332 49.8167C25.888 51.5354 24.837 52.7079 23.0687 53.1987V53.1989Z" fill="#00AF4D" fill-opacity="0.05"/>
<path d="M28.791 60.6244C27.9063 60.0314 28.3365 58.7627 28.2273 57.8909C28.0623 56.5767 26.6073 56.3007 25.6278 55.6927C25.374 55.5352 24.9523 55.3674 24.6905 55.3219C24.4093 55.2732 24.3123 55.3657 24.8053 55.7634C25.4435 56.2784 26.2555 56.6087 26.9675 57.0044C27.7125 57.4187 27.6393 57.7412 27.6695 58.5239C27.7063 59.4797 27.919 62.2084 29.1785 62.0934C29.6375 62.0514 30.6133 61.6799 30.3125 61.0962C30.0388 60.5649 29.189 60.8909 28.7913 60.6242L28.791 60.6244ZM29.341 61.5164C28.964 61.6142 28.8068 61.4477 28.7208 61.1969C28.8013 61.2074 28.891 61.2137 28.993 61.2149C29.1388 61.2164 29.8963 61.2972 29.8803 61.3254C29.83 61.4147 29.423 61.4952 29.341 61.5164Z" fill="#DD1A21" fill-opacity="0.05"/>
<path d="M15.3739 56.7491C14.9477 57.7279 15.3724 58.8896 15.2807 59.9131C15.2459 60.3011 15.1642 60.6801 14.9352 60.9834C14.8764 61.0611 14.8082 61.1336 14.7284 61.2004C14.3794 61.4924 13.8229 61.4724 13.5219 61.8236C12.5899 62.9111 15.3399 64.5181 15.6514 62.7539C15.9622 60.9936 15.1332 58.7836 15.8347 57.0754C16.1217 56.3766 16.6919 56.3814 17.3344 56.2151C17.5637 56.1559 18.6917 55.8764 18.3077 55.4429C17.8039 54.8741 15.5747 56.2881 15.3739 56.7491ZM14.4784 62.9789C14.3759 62.9629 14.2619 62.9166 14.1362 62.8324C13.2182 62.2184 14.6199 61.6231 15.1799 61.6746C15.2604 62.2271 15.0437 63.0664 14.4782 62.9786L14.4784 62.9789Z" fill="#DD1A21" fill-opacity="0.05"/>
<path d="M17.0971 43.1734C16.4263 42.6244 15.4273 42.1289 14.8901 41.4526C14.3551 40.7791 14.8863 40.0291 15.1263 39.2816C15.4268 38.3459 15.5046 37.3144 15.8751 36.4049C16.0446 35.9889 17.6261 34.9049 17.4451 34.4874C17.2496 34.0369 16.1008 34.8506 16.1021 35.1114C16.1013 34.9354 16.1296 33.5321 15.6183 34.1496C15.4723 34.3261 15.6251 35.4294 15.5656 35.7121C15.4721 35.5696 14.9573 34.7859 14.6138 34.4869C14.4056 34.3056 14.2603 34.3026 14.3103 34.7291C14.3396 34.9786 14.9658 35.6219 15.1033 35.9021C15.2891 36.2806 15.2706 36.5166 15.1983 36.9361C15.0363 37.8749 14.7853 38.8481 14.4551 39.7411C14.2198 40.3771 13.8693 40.9544 14.2926 41.5799C14.7996 42.3291 15.9186 42.8759 16.6271 43.4219C16.8308 43.5789 17.2616 44.1184 17.5231 43.9171C17.8618 43.6566 17.2446 43.2939 17.0971 43.1734Z" fill="#DD1A21" fill-opacity="0.05"/>
<path d="M27.3252 42.2104C27.139 42.0996 25.8312 41.3861 25.2835 41.4206C25.1215 41.4309 25.026 41.5064 25.0455 41.6824C25.062 41.8306 27.074 42.6284 27.3917 42.8119C27.7272 43.0054 28.5022 43.1766 28.6452 43.5906C28.7997 44.0384 28.32 44.2746 27.9757 44.5079C27.4882 44.8376 26.1457 45.3364 26.1677 46.0704C26.1745 46.2971 26.6495 46.6219 26.756 46.8494C26.8767 47.1076 26.7847 47.6881 26.9295 47.8781C27.4787 48.5984 27.363 47.2606 27.3042 46.9484C27.478 47.0611 28.6967 47.8424 28.4255 47.0699C28.2992 46.7104 27.1157 46.3354 26.809 46.0499C27.3815 45.5036 29.1387 44.7159 29.317 43.8624C29.4592 43.1824 27.8285 42.5091 27.3252 42.2104Z" fill="#DD1A21" fill-opacity="0.05"/>
<path d="M48.8057 82.1549C48.5187 81.4487 48.5872 80.0982 47.5827 80.2959C47.1497 80.3812 46.7789 80.3869 46.3472 80.4307C46.0519 80.4607 45.8739 80.5569 45.7337 80.8224C45.5432 81.1824 45.5307 81.6819 45.4579 82.0729C45.3502 82.6522 45.2349 83.2317 45.0857 83.8019C45.0382 83.9834 44.9834 84.1702 44.9252 84.3612C44.4332 85.9747 43.6909 87.8802 44.9497 89.2769C46.1947 90.6584 48.5157 90.3207 49.8334 89.2314C51.2172 88.0877 50.4719 86.0632 49.9057 84.6852C49.5562 83.8344 49.1519 83.0067 48.8059 82.1549H48.8057Z" fill="#006CB7" fill-opacity="0.05"/>
<path d="M46.8697 75.1983C45.8382 75.1738 44.8585 75.9081 44.5305 76.8761C43.801 79.0326 46.3305 80.9101 48.199 79.6334C49.0072 79.0811 49.4152 78.0379 49.2212 77.0829C49.0082 76.0334 47.92 75.2236 46.8697 75.1986V75.1983Z" fill="#006CB7" fill-opacity="0.05"/>
<path d="M50.8098 85.697C50.6241 85.9953 51.0123 87.094 51.0523 87.488C51.1146 88.1023 51.0961 88.5798 50.6803 89.0675C49.3998 90.5698 47.2463 91.1648 45.4776 90.2385C44.8611 89.9155 44.3836 89.4423 44.1471 88.7795C44.0211 88.4265 43.9606 88.0438 43.9411 87.6705C43.9156 87.1795 44.1086 86.6523 43.8978 86.1848C43.5493 86.533 43.2676 86.9453 43.0848 87.3878C42.7538 88.1883 42.7461 89.0873 43.2503 89.8843C43.9531 90.9948 45.3208 91.5143 46.5828 91.6035C48.2741 91.7233 50.1103 91.2488 51.2481 89.9295C52.2503 88.7673 52.5936 86.4135 50.8101 85.697H50.8098Z" fill="#006CB7" fill-opacity="0.05"/>
<path d="M51.4023 90.4508C49.9568 91.8625 47.9515 92.3408 45.9975 92.0153C44.1875 91.7138 43.0183 90.659 42.2948 89.0073C42.2113 89.5413 42.337 90.1378 42.4848 90.6528C42.7455 91.562 43.5008 92.3063 44.2725 92.826C44.7138 93.1233 45.2208 93.2955 45.7375 93.4058C47.5493 93.7918 49.4305 93.526 50.9515 92.432C51.1588 92.283 51.3558 92.1158 51.5395 91.9335C52.6555 90.8258 53.2768 89.1593 52.651 87.6243C52.5185 88.6963 52.193 89.6788 51.4028 90.4505L51.4023 90.4508Z" fill="#006CB7" fill-opacity="0.05"/>
<path d="M50.5525 94.1839C50.367 93.9672 50.2333 93.9764 50.3595 94.5972C50.5228 95.4009 50.9378 96.1729 51.2338 96.9319C51.5435 97.7259 51.2815 97.9277 50.8055 98.5499C50.2243 99.3097 48.648 101.547 49.6918 102.262C50.072 102.522 51.0605 102.858 51.201 102.217C51.329 101.633 50.4665 101.342 50.3303 100.883C50.027 99.8622 51.1675 99.1594 51.639 98.4182C52.35 97.3007 51.4053 96.1599 51.0385 95.0672C50.9435 94.7839 50.7258 94.3859 50.553 94.1839H50.5525ZM50.722 102.118C50.6265 102.155 50.2615 101.957 50.1848 101.921C49.832 101.756 49.817 101.528 49.9108 101.28C49.966 101.339 50.031 101.401 50.109 101.467C50.2203 101.561 50.7523 102.106 50.722 102.118Z" fill="#FFCD03" fill-opacity="0.05"/>
<path d="M40.6689 94.65C40.0221 95.4993 40.1584 96.7288 39.8259 97.701C39.6999 98.0695 39.5304 98.4183 39.2356 98.6583C39.1601 98.7198 39.0766 98.774 38.9834 98.8198C38.5749 99.0203 38.0391 98.8685 37.6631 99.1383C36.4991 99.973 38.7881 102.188 39.5104 100.548C40.2309 98.9125 39.9511 96.5688 41.0389 95.0763C41.4839 94.4658 42.0366 94.606 42.7001 94.5973C42.9369 94.5943 44.0991 94.591 43.8291 94.0785C43.4751 93.4063 40.9736 94.2495 40.6689 94.6498V94.65ZM38.3176 100.488C38.2219 100.448 38.1221 100.376 38.0201 100.265C37.2746 99.4498 38.7776 99.2048 39.3094 99.3883C39.2561 99.944 38.8459 100.708 38.3176 100.488Z" fill="#FFCD03" fill-opacity="0.05"/>
<path d="M60.9356 84.1401C60.7096 84.0309 59.8306 84.2136 59.5204 84.1791C59.1011 84.1324 58.9121 83.9901 58.5971 83.7039C57.8921 83.0631 57.2061 82.3284 56.6304 81.5704C56.2201 81.0304 55.9216 80.4246 55.1666 80.4459C54.2624 80.4711 53.2001 81.1216 52.3589 81.4256C52.1171 81.5131 51.4306 81.5869 51.4599 81.9154C51.4976 82.3409 52.1351 82.0151 52.3161 81.9556C53.1394 81.6846 54.0939 81.1081 54.9529 81.0181C55.8084 80.9286 56.1556 81.7794 56.6571 82.3834C57.2851 83.1394 58.1136 83.7589 58.6816 84.5601C58.9414 84.9266 59.0066 86.8429 59.4559 86.9141C59.9409 86.9911 59.8714 85.5851 59.6509 85.4461C59.7996 85.5399 60.9681 86.3176 60.7219 85.5546C60.6516 85.3366 59.6386 84.8729 59.4321 84.6711C59.6026 84.6686 60.5401 84.6554 60.9766 84.5264C61.2414 84.4481 61.3221 84.3271 60.9354 84.1404L60.9356 84.1401Z" fill="#FFCD03" fill-opacity="0.05"/>
<path d="M41.5767 80.4118C41.2287 80.2418 40.4437 80.1243 40.2727 79.7211C40.0877 79.2851 40.5502 79.0163 40.8777 78.7601C41.3412 78.3976 42.6465 77.8078 42.5742 77.0771C42.5517 76.8513 42.0557 76.5601 41.9337 76.3403C41.7955 76.0911 41.8475 75.5056 41.69 75.3261C41.0925 74.6453 41.3 75.9718 41.38 76.2793C41.199 76.1786 39.9295 75.4831 40.2532 76.2351C40.404 76.5851 41.6102 76.8778 41.936 77.1416C41.4025 77.7258 39.7035 78.6323 39.584 79.4961C39.489 80.1843 41.162 80.7438 41.6845 81.0073C41.878 81.1048 43.2317 81.7271 43.7757 81.6548C43.9365 81.6336 44.0267 81.5516 43.995 81.3773C43.9685 81.2306 41.9062 80.5728 41.5767 80.4118Z" fill="#FFCD03" fill-opacity="0.05"/>
<path d="M60.8343 28.1593C60.5408 27.4558 60.5968 26.1048 59.594 26.3116C59.1618 26.4008 58.7913 26.4101 58.36 26.4578C58.065 26.4903 57.888 26.5883 57.75 26.8551C57.5628 27.2168 57.5548 27.7163 57.4858 28.1081C57.3835 28.6883 57.2735 29.2688 57.1295 29.8403C57.0838 30.0223 57.0308 30.2096 56.9743 30.4011C56.497 32.0191 55.7725 33.9313 57.0443 35.3166C58.302 36.6866 60.6198 36.3273 61.9273 35.2261C63.3003 34.0698 62.5366 32.0521 61.9576 30.6793C61.6001 29.8318 61.1885 29.0078 60.8345 28.1593H60.8343Z" fill="#FFCD03" fill-opacity="0.05"/>
<path d="M58.837 21.2209C57.8052 21.2059 56.8325 21.9492 56.5132 22.9202C55.8037 25.0832 58.3502 26.9374 60.207 25.6434C61.0102 25.0837 61.4082 24.0369 61.2057 23.0834C60.983 22.0359 59.8872 21.2362 58.837 21.2209Z" fill="#FFCD03" fill-opacity="0.05"/>
<path d="M62.8716 31.6826C62.6886 31.9826 63.0871 33.0776 63.1306 33.4714C63.1986 34.0851 63.1846 34.5626 62.7731 35.0544C61.5063 36.5684 59.3586 37.1831 57.5813 36.2734C56.9618 35.9561 56.4801 35.4871 56.2373 34.8266C56.1081 34.4749 56.0441 34.0926 56.0211 33.7194C55.9911 33.2286 56.1793 32.6996 55.9641 32.2341C55.6188 32.5856 55.3408 33.0004 55.1621 33.4444C54.8383 34.2479 54.8388 35.1469 55.3506 35.9391C56.0636 37.0431 57.4358 37.5501 58.6988 37.6276C60.3911 37.7316 62.2228 37.2404 63.3483 35.9106C64.3398 34.7391 64.6613 32.3824 62.8713 31.6824L62.8716 31.6826Z" fill="#FFCD03" fill-opacity="0.05"/>
<path d="M63.5093 36.431C62.077 37.856 60.076 38.3528 58.1193 38.0453C56.3065 37.7605 55.1278 36.7165 54.3888 35.0715C54.31 35.6063 54.4415 36.2015 54.5938 36.7153C54.863 37.6223 55.625 38.3593 56.4015 38.872C56.8455 39.1653 57.354 39.3328 57.872 39.4383C59.6873 39.8075 61.566 39.5243 63.0768 38.4165C63.2825 38.2655 63.478 38.0965 63.66 37.9125C64.7658 36.7945 65.3715 35.1223 64.7315 33.5933C64.6088 34.6663 64.2925 35.652 63.5093 36.431Z" fill="#FFCD03" fill-opacity="0.05"/>
<path d="M67.3786 46.8721C66.6123 46.4891 65.7358 46.3298 64.8901 46.2603C63.9353 46.1818 63.7711 46.2283 63.5413 45.2583C63.3593 44.4898 62.9948 43.7563 63.0483 42.9521C63.0708 42.6156 63.8233 40.1613 63.0926 40.5576C63.0526 40.5793 63.0168 40.6103 62.9843 40.6491C62.6718 41.0233 62.6893 42.1218 62.6253 42.4998C62.4538 43.5123 62.8086 44.2968 63.0463 45.2656C63.3748 46.6031 64.5433 48.0026 65.9853 48.2278C66.9868 48.3843 69.1661 47.7661 67.3786 46.8723V46.8721ZM66.1733 47.6638C65.8641 47.5883 65.5621 47.4801 65.2768 47.3386C64.9498 47.1763 64.6453 46.9706 64.3781 46.7206C64.9216 46.6878 67.1448 46.7273 67.3676 47.4183C67.5541 47.9968 66.4676 47.7356 66.1733 47.6638Z" fill="#006CB7" fill-opacity="0.05"/>
<path d="M57.2152 41.1118C57.1852 41.0713 57.1512 41.038 57.1127 41.014C56.4067 40.575 57.0122 43.0698 57.0145 43.407C57.02 44.2128 56.6127 44.9235 56.3852 45.6798C56.0982 46.6343 55.937 46.578 54.9792 46.5998C54.1307 46.6188 53.2465 46.7258 52.4587 47.0625C50.6212 47.8485 52.7597 48.595 53.7687 48.4985C55.2215 48.3595 56.4712 47.0318 56.8785 45.7163C57.1735 44.7635 57.5742 44.0013 57.4632 42.9805C57.4217 42.5993 57.5045 41.5038 57.215 41.1118H57.2152ZM54.529 47.653C54.236 47.7773 53.928 47.8675 53.6147 47.9245C53.3167 47.9788 52.2165 48.1748 52.4372 47.6083C52.7007 46.9318 54.9222 47.0245 55.463 47.0895C55.1815 47.3233 54.865 47.5105 54.529 47.653Z" fill="#006CB7" fill-opacity="0.05"/>
<path d="M67.6336 30.3746C66.8649 29.9701 66.1234 29.5201 65.3691 29.0923C64.9176 28.8363 63.8761 28.5998 64.4809 29.1628C64.5036 29.1838 64.5284 29.2061 64.5559 29.2296C65.6431 30.1576 67.2721 30.6393 68.5089 31.3833C70.2236 32.4151 69.2354 34.2313 68.7066 35.7583C68.3099 35.7686 66.1439 36.0473 66.0516 36.4491C65.9136 37.0503 67.9546 36.3641 68.2464 36.3136C68.0439 36.9081 68.0086 38.7036 68.7849 37.4071C68.7951 37.3901 69.2696 37.7216 69.3781 37.0291C69.4546 36.5403 69.2046 36.0501 69.2954 35.5563C69.4371 34.7856 69.7861 34.0436 69.9584 33.2743C70.3514 31.5201 68.9794 31.0831 67.6336 30.3748V30.3746Z" fill="#006CB7" fill-opacity="0.05"/>
<path d="M53.8871 28.2912C53.1536 28.8252 52.4451 29.3987 51.7689 30.0042C51.1369 30.5702 50.5499 31.1872 50.1211 31.9247C49.7549 32.5545 49.5604 33.291 49.1121 33.8697C49.1041 33.8647 49.0941 33.8582 49.0846 33.852C48.8761 33.7147 48.3381 33.2907 48.1226 33.355C47.4789 33.5465 48.3631 33.9992 48.5599 34.1C48.0826 34.4305 46.6136 34.217 46.3196 34.6215C46.2069 34.7767 46.2541 34.866 46.3966 34.9107C46.8596 35.0562 48.3264 34.7307 48.5579 34.663C48.4246 34.9107 47.8379 35.6097 48.1034 35.8625C48.4589 36.2007 48.7921 35.2305 48.9041 35.0327C48.9554 34.9425 49.0064 34.8507 49.0574 34.7597C49.5604 33.8647 50.0631 32.9467 50.6089 32.0792C51.2589 31.0462 52.2014 30.264 53.1256 29.483C53.7481 28.957 55.1254 28.4932 55.4316 27.69C55.8664 26.5492 54.1629 28.0902 53.8869 28.2912H53.8871Z" fill="#006CB7" fill-opacity="0.05"/>
<path d="M95.9699 44.0532C95.6029 42.7042 95.3424 41.361 93.8434 40.906C92.1156 40.3815 90.2864 40.2142 88.5134 39.905C87.6049 39.7465 86.6951 39.5695 85.7816 39.4427C85.2826 39.3735 84.6971 39.315 84.3904 39.8057C84.2009 40.109 84.2024 40.502 84.2436 40.8797C84.2671 41.0955 84.3034 41.306 84.3244 41.492C84.4164 42.3097 84.5094 43.1275 84.6031 43.9452C84.7681 45.3835 84.7439 47.039 85.2066 48.4162C85.5496 49.437 86.3491 50.0042 87.3864 50.1957C88.9481 50.484 90.5944 50.515 92.1756 50.657C93.0034 50.7312 93.8314 50.8045 94.6594 50.8767C95.3099 50.9335 96.0521 51.1002 96.7031 50.976C97.8381 50.7592 97.4489 49.5765 97.2394 48.77C96.8301 47.1942 96.3974 45.6247 95.9699 44.0537V44.0532ZM87.7719 42.7097C87.4204 42.8635 86.9704 42.8455 86.6079 42.543C85.2379 41.3997 87.2316 40.1145 88.1336 41.327C88.5749 41.9202 88.2739 42.4902 87.7719 42.7097ZM95.0481 49.1787C94.7631 49.3387 94.3916 49.3425 94.0154 49.0625C92.6254 48.0292 94.1349 46.3312 95.2684 47.5305C95.7966 48.0895 95.5634 48.8895 95.0481 49.1787Z" fill="white" fill-opacity="0.05"/>
<path d="M94.9941 51.4329C94.1204 51.3449 93.2439 51.2917 92.3699 51.2059C91.1519 51.0864 89.9336 50.9707 88.7144 50.8639C87.6716 50.7727 86.4644 50.5092 85.4589 50.9172C84.4666 51.3197 83.9521 52.4517 83.4034 53.3062C82.7891 54.2622 81.9824 55.2602 81.5264 56.2952C82.6826 56.7514 84.0059 56.6642 85.2314 56.7204C86.4409 56.7759 87.6509 56.8277 88.8609 56.8727C90.0054 56.9152 91.2386 57.1052 92.3044 56.5829C93.3191 56.0857 94.0934 55.0649 94.8994 54.2942C95.4034 53.8124 95.9861 53.3357 96.4929 52.8122C96.7629 52.5332 97.0111 52.2409 97.2144 51.9274C97.3011 51.7937 95.1166 51.4457 94.9939 51.4332L94.9941 51.4329ZM85.5861 55.5989C85.0916 56.0554 83.7366 56.2472 83.6836 55.3039C83.6509 54.7189 84.4016 54.1894 85.0064 54.3002C85.4329 54.3782 85.7661 54.7137 85.8024 55.0662C85.8211 55.2504 85.7589 55.4394 85.5861 55.5989ZM90.1679 54.3599C89.6734 54.8164 88.3184 55.0082 88.2654 54.0649C88.2326 53.4799 88.9834 52.9507 89.5881 53.0612C90.0146 53.1392 90.3479 53.4747 90.3841 53.8272C90.4029 54.0114 90.3406 54.2004 90.1679 54.3599ZM94.5146 53.5112C94.0201 53.9677 92.6651 54.1594 92.6124 53.2162C92.5796 52.6312 93.3304 52.1017 93.9351 52.2124C94.3616 52.2904 94.6949 52.6259 94.7311 52.9784C94.7499 53.1627 94.6876 53.3517 94.5149 53.5112H94.5146Z" fill="white" fill-opacity="0.05"/>
<path d="M84.0369 43.4464C83.9722 42.8994 83.9064 42.3524 83.8412 41.8054C83.7847 41.3301 83.9104 40.6159 83.5482 40.2446C83.1577 40.5096 82.8784 41.2761 82.6532 41.7044C82.3842 42.2156 82.1307 42.7346 81.8757 43.2529C81.4504 44.1174 80.6819 45.1324 80.6357 46.1074C80.5844 47.1944 80.7277 48.3274 80.7727 49.4154C80.8182 50.5179 80.8642 51.6204 80.9109 52.7229C80.9327 53.2386 80.8639 53.9551 80.9452 54.5889C80.9952 54.9786 81.1019 55.3369 81.3217 55.5976C82.0729 54.6779 82.6777 53.5249 83.2972 52.5069C83.8189 51.6491 84.4092 50.7794 84.5549 49.7671C84.6997 48.7621 84.5104 47.7134 84.4059 46.7121C84.2924 45.6226 84.1659 44.5346 84.0369 43.4466V43.4464ZM82.7672 49.1289C82.5544 49.2001 82.3104 49.0971 82.1094 48.7211C81.3669 47.3334 82.6322 46.1419 83.1797 47.6149C83.4349 48.3014 83.1519 49.0001 82.7672 49.1289Z" fill="white" fill-opacity="0.05"/>
<path d="M74.0283 62.9421C74.1843 63.1416 74.3363 63.3358 74.4911 63.5336C77.1208 62.2501 79.6513 60.8331 82.0408 59.3213C81.8833 59.1196 81.7308 58.9238 81.5771 58.7268C79.1791 60.2728 76.6486 61.6841 74.0286 62.9421H74.0283Z" fill="white" fill-opacity="0.05"/>
<path d="M66.1572 57.0119C66.3132 57.2114 66.4652 57.4056 66.62 57.6034C69.2497 56.3199 71.7802 54.9029 74.1697 53.3911C74.0122 53.1894 73.8597 52.9936 73.706 52.7966C71.308 54.3426 68.7775 55.7539 66.1575 57.0119H66.1572Z" fill="white" fill-opacity="0.05"/>
<path d="M61.9753 65.3523C62.1551 65.539 62.3301 65.7208 62.5083 65.906C66.7473 63.7585 70.8733 61.4845 74.8148 59.1393C74.6336 58.9503 74.4578 58.767 74.2808 58.5825C70.3176 60.9688 66.1928 63.2363 61.9753 65.3523Z" fill="white" fill-opacity="0.05"/>
<path d="M64.1799 7.47506C64.4117 7.57731 64.6372 7.67681 64.8669 7.77806C66.5794 5.40531 68.1414 2.96156 69.5342 0.500807C69.3002 0.397307 69.0732 0.296807 68.8447 0.195557C67.4602 2.69031 65.8957 5.12906 64.1797 7.47481L64.1799 7.47506Z" fill="white" fill-opacity="0.05"/>
<path d="M55.1304 6.265C56.6079 4.218 57.9726 2.118 59.2139 0H58.3551C57.1639 2.0365 55.8559 4.031 54.4434 5.962C54.6751 6.06425 54.9006 6.16375 55.1304 6.265Z" fill="white" fill-opacity="0.05"/>
<path d="M54.6948 15.288C54.9413 15.3677 55.1816 15.4455 55.4261 15.5245C58.1493 11.6305 60.7136 7.67823 63.0813 3.75023C62.8323 3.66923 62.5908 3.59048 62.3478 3.51123C59.9803 7.48573 57.4143 11.4317 54.6951 15.2877L54.6948 15.288Z" fill="white" fill-opacity="0.05"/>
<path d="M24.308 75.974C22.925 75.1932 21.3785 74.6282 19.9295 73.9795C19.171 73.64 18.412 73.3012 17.6525 72.9635C17.0557 72.6982 16.4082 72.299 15.7522 72.2047C14.6087 72.0402 14.5917 73.2855 14.5275 74.1162C14.4017 75.7395 14.3002 77.3645 14.1935 78.989C14.1017 80.384 13.9107 81.739 15.18 82.657C16.6432 83.7152 18.3185 84.4687 19.8942 85.338C20.7017 85.7835 21.5042 86.247 22.3267 86.664C22.776 86.892 23.3105 87.1377 23.7605 86.7735C24.0385 86.5485 24.1647 86.1762 24.2487 85.8057C24.2967 85.5942 24.331 85.3832 24.3715 85.2005C24.5505 84.3972 24.7287 83.5937 24.9062 82.79C25.2182 81.3765 25.78 79.8187 25.7902 78.366C25.798 77.2892 25.2267 76.4925 24.3082 75.974H24.308ZM15.988 75.9292C15.6702 75.2287 16.1512 74.5482 16.7325 74.4425C17.054 74.384 17.4065 74.5012 17.6712 74.8885C18.6495 76.3177 16.6695 77.4322 15.9877 75.9295L15.988 75.9292ZM20.716 84.1167C20.4917 83.4122 20.962 82.9712 21.508 82.927C21.8905 82.896 22.31 83.0595 22.5542 83.4635C23.4777 84.9902 21.1742 85.557 20.716 84.117V84.1167Z" fill="white" fill-opacity="0.05"/>
<path d="M25.0844 69.1808C24.0159 68.7683 22.9116 68.1873 21.7339 68.3343C20.6126 68.4743 19.5484 69.1876 18.5354 69.6541C17.9021 69.9456 17.1959 70.2068 16.5464 70.5371C16.2004 70.7131 15.8704 70.9086 15.5761 71.1388C15.4506 71.2371 17.4029 72.2768 17.5149 72.3286C18.3124 72.6961 19.1241 73.0316 19.9224 73.3971C21.0351 73.9063 22.1496 74.4123 23.2676 74.9098C24.2239 75.3353 25.2799 75.9773 26.3631 75.9188C27.4324 75.8611 28.2871 74.9581 29.0841 74.3288C29.9759 73.6246 31.0636 72.9436 31.8316 72.1133C30.8866 71.3056 29.6071 70.9576 28.4666 70.5058C27.3409 70.0598 26.2139 69.6171 25.0841 69.1811L25.0844 69.1808ZM20.3476 71.4173C20.1884 71.9813 19.3061 72.2376 18.7704 71.9361C18.3924 71.7236 18.1864 71.2978 18.2671 70.9526C18.3094 70.7721 18.4296 70.6138 18.6449 70.5191C19.2611 70.2483 20.6046 70.5078 20.3476 71.4171V71.4173ZM24.7339 72.0293C24.5746 72.5933 23.6924 72.8496 23.1566 72.5481C22.7786 72.3356 22.5726 71.9098 22.6534 71.5648C22.6956 71.3843 22.8159 71.2261 23.0311 71.1313C23.6474 70.8606 24.9909 71.1201 24.7339 72.0293ZM29.4694 72.3486C29.3101 72.9126 28.4279 73.1688 27.8921 72.8673C27.5141 72.6548 27.3081 72.2291 27.3889 71.8841C27.4311 71.7036 27.5514 71.5453 27.7666 71.4506C28.3826 71.1798 29.7264 71.4393 29.4694 72.3486Z" fill="white" fill-opacity="0.05"/>
<path d="M28.925 75.1191C28.1525 75.7604 27.3113 76.3906 26.844 77.3006C26.38 78.2039 26.2178 79.2571 25.9908 80.2379C25.7438 81.3051 25.5093 82.3751 25.2773 83.4456C25.1605 83.9839 25.0448 84.5226 24.9283 85.0609C24.8273 85.5286 24.4758 86.1631 24.6975 86.6321C25.153 86.5086 25.6665 85.8746 26.0188 85.5431C26.4395 85.1474 26.8483 84.7389 27.2578 84.3319C27.9413 83.6529 28.9983 82.9431 29.359 82.0361C29.7613 81.0251 29.9943 79.9069 30.3058 78.8636C30.6213 77.8064 30.9368 76.7489 31.2513 75.6911C31.3983 75.1964 31.6968 74.5411 31.826 73.9156C31.9055 73.5309 31.9213 73.1574 31.7983 72.8394C30.7885 73.4646 29.8418 74.3581 28.9245 75.1194L28.925 75.1191ZM27.4443 79.7829C27.4265 79.0506 27.9213 78.4821 28.327 78.4854C28.5515 78.4871 28.7485 78.6641 28.8163 79.0849C29.0668 80.6386 27.4825 81.3539 27.4443 79.7829Z" fill="white" fill-opacity="0.05"/>
<path d="M0.662109 69.5073C3.07911 71.157 5.56286 72.6543 8.05911 73.9823C8.15661 73.7455 8.25111 73.516 8.34611 73.285C5.81586 71.9665 3.33686 70.4663 0.947109 68.8125C0.851109 69.0467 0.757359 69.275 0.662109 69.5073Z" fill="white" fill-opacity="0.05"/>
<path d="M1.92139 59.7328C4.33839 61.3826 6.82214 62.8798 9.31839 64.2078C9.41589 63.9711 9.51039 63.7416 9.60539 63.5106C7.07514 62.1921 4.59614 60.6918 2.20639 59.0381C2.11039 59.2723 2.01664 59.5006 1.92139 59.7328Z" fill="white" fill-opacity="0.05"/>
<path d="M4.86125 66.8754C3.2355 65.9639 1.614 65.0187 0 64.0454V64.8987C1.5485 65.8319 3.09725 66.7384 4.6415 67.6152C4.716 67.3642 4.78825 67.1207 4.861 66.8757L4.86125 66.8754Z" fill="white" fill-opacity="0.05"/>
<path d="M3.26325 19.8811C3.41375 19.9921 3.57825 20.1289 3.75325 20.2569C4.05975 20.4811 4.3995 20.6789 4.757 20.6661C5.3355 20.6454 5.57725 20.1091 5.7665 19.6421C6.113 18.7874 6.414 17.9109 6.73075 17.0449C7.3485 15.3546 8.1175 13.6864 8.52625 11.9276C8.881 10.4019 7.8475 9.50539 6.86225 8.51339C5.715 7.35814 4.5715 6.19939 3.411 5.05739C2.817 4.47289 1.98675 3.54489 1.232 4.41964C0.799 4.92164 0.57275 5.64789 0.297 6.23964C0.19775 6.45264 0.09925 6.66589 0 6.87889V17.5256C0.4385 17.8244 0.875 18.1161 1.2775 18.4141C1.939 18.9039 2.601 19.3929 3.26325 19.8811ZM3.93025 16.2861C4.37125 15.9611 5.0155 15.9851 5.30875 16.6636C5.9085 18.0506 3.799 19.1356 3.49325 17.3776C3.41225 16.9126 3.6215 16.5136 3.93025 16.2861ZM1.9615 6.75114C2.4695 6.44914 3.279 6.64689 3.49925 7.38389C3.972 8.96489 1.74675 9.42439 1.546 7.70414C1.49175 7.23814 1.68025 6.91839 1.96125 6.75139L1.9615 6.75114Z" fill="white" fill-opacity="0.05"/>
<path d="M0.66325 3.50125C0.44325 3.51275 0.22175 3.543 0 3.584V5.62825C0.12825 5.3075 0.8125 3.4935 0.66325 3.50125Z" fill="white" fill-opacity="0.05"/>
<path d="M2.24399 21.2222C2.72749 21.241 3.53099 21.382 3.95574 21.1762C3.81524 20.677 3.13349 20.429 2.75024 20.1427C2.30899 19.813 1.86799 19.483 1.42649 19.1535C0.951994 18.7992 0.476744 18.4462 0.000244141 18.0945V21.1052C0.177994 21.1072 0.350744 21.1115 0.514244 21.1222C1.09049 21.1602 1.66699 21.2 2.24424 21.2222H2.24399Z" fill="white" fill-opacity="0.05"/>
<path d="M9.64965 5.06025C10.4616 3.3865 11.2084 1.695 11.8884 0H11.1016C10.4406 1.645 9.71215 3.27525 8.9209 4.88025C9.16665 4.941 9.40615 5 9.6499 5.06025H9.64965Z" fill="white" fill-opacity="0.05"/>
<path d="M3.33642 0.73625C3.45517 0.49125 3.57117 0.24575 3.68742 0H2.87642C2.78692 0.1855 2.69842 0.3715 2.60742 0.55625C2.85317 0.617 3.09267 0.676 3.33642 0.73625Z" fill="white" fill-opacity="0.05"/>
<path d="M117.888 59.5342C117.815 59.7827 117.743 60.0249 117.671 60.2714C120.1 61.8772 122.55 63.4217 125 64.8987V64.0454C122.608 62.6029 120.233 61.0969 117.888 59.5342H117.888Z" fill="white" fill-opacity="0.05"/>
<path d="M124.248 8.50091C123.581 9.94166 122.786 11.3834 122.255 12.8802C121.903 13.8744 121.995 14.8504 122.708 15.6574C123.337 16.3697 124.173 16.9607 125.002 17.5254V6.87866C124.75 7.41916 124.499 7.95966 124.248 8.50066V8.50091Z" fill="white" fill-opacity="0.05"/>
<path d="M122.458 4.32423C121.387 4.63748 120.116 4.79823 119.178 5.42898C118.194 6.09123 117.742 7.25448 117.207 8.26723C116.641 9.33798 116.082 10.4117 115.526 11.4872C114.962 12.5767 114.225 13.6795 114.043 14.9092C115.167 15.0312 116.435 14.831 117.57 14.7765C118.584 14.7277 119.822 14.8477 120.666 14.1892C121.522 13.522 121.897 12.3447 122.339 11.3957C122.855 10.2862 123.364 9.17323 123.869 8.05848C124.231 7.25873 124.623 6.47248 124.983 5.67173C124.986 5.66473 124.992 5.64973 125.001 5.62823V3.58398C124.847 3.61248 124.692 3.64548 124.538 3.68423C123.831 3.86148 123.127 4.12823 122.458 4.32423ZM117.51 12.8912C117.303 13.4702 116.47 13.8562 115.979 13.5355C115.189 13.0185 116.032 11.9405 116.674 11.7402C116.898 11.6702 117.093 11.7107 117.244 11.8192C117.531 12.0267 117.655 12.483 117.51 12.8915V12.8912ZM120.872 9.54123C120.666 10.1202 119.832 10.5062 119.342 10.1855C118.551 9.66848 119.394 8.59048 120.036 8.39023C120.261 8.32023 120.456 8.36073 120.606 8.46923C120.893 8.67673 121.017 9.13298 120.872 9.54148V9.54123ZM123.779 6.19973C123.572 6.77873 122.739 7.16473 122.248 6.84398C121.458 6.32698 122.301 5.24898 122.943 5.04873C123.167 4.97873 123.362 5.01923 123.513 5.12773C123.8 5.33523 123.924 5.79148 123.779 6.19998V6.19973Z" fill="white" fill-opacity="0.05"/>
<path d="M123.782 17.2023C122.967 16.6115 122.153 15.9238 121.21 15.547C120.26 15.1675 119.212 15.2443 118.208 15.2678C117.016 15.2958 115.716 15.2435 114.543 15.4348C114.66 15.7553 114.917 16.0268 115.229 16.2648C115.737 16.6518 116.393 16.95 116.829 17.2265C117.76 17.8178 118.692 18.4083 119.625 18.9988C120.544 19.5813 121.454 20.2715 122.422 20.77C123.142 21.141 124.133 21.095 125 21.105V18.0943C124.595 17.7953 124.189 17.4975 123.782 17.2023H123.782ZM120.894 18.1878C120.669 17.8258 120.701 17.563 120.869 17.4143C121.173 17.1455 121.92 17.2493 122.387 17.8133C123.389 19.0233 121.725 19.524 120.894 18.1878Z" fill="white" fill-opacity="0.05"/>
<path d="M76.2604 111.98C76.0609 111.895 75.8594 111.824 75.6869 111.751C74.9287 111.431 74.1699 111.112 73.4109 110.794C72.0759 110.235 70.6437 109.404 69.2159 109.134C68.1579 108.934 67.2719 109.354 66.5977 110.165C65.5824 111.386 64.7502 112.807 63.8529 114.117C63.3832 114.802 62.9144 115.489 62.4467 116.176C62.0789 116.715 61.5707 117.281 61.3607 117.91C60.9947 119.005 62.2167 119.245 63.0227 119.456C64.5974 119.87 66.1779 120.26 67.7572 120.656C69.1134 120.995 70.4124 121.425 71.5424 120.34C72.8449 119.09 73.8857 117.576 75.0224 116.181C75.6049 115.466 76.2044 114.759 76.7617 114.025C77.0662 113.623 77.4034 113.141 77.1257 112.634C76.9539 112.32 76.6102 112.129 76.2607 111.98L76.2604 111.98ZM65.0672 118.343C64.3212 118.53 63.7374 117.936 63.7372 117.345C63.7372 117.018 63.9154 116.692 64.3437 116.501C65.9247 115.794 66.6677 117.941 65.0672 118.343ZM73.9677 115.154C73.2344 115.249 72.8844 114.707 72.9384 114.162C72.9762 113.78 73.2122 113.397 73.6532 113.228C75.3204 112.593 75.4664 114.96 73.9677 115.154Z" fill="white" fill-opacity="0.05"/>
<path d="M64.1427 102.07C63.1792 102.856 62.608 104.053 61.9597 105.094C61.3197 106.122 60.683 107.152 60.052 108.185C59.4552 109.163 58.6862 110.146 58.6205 111.331C58.558 112.459 59.0695 113.633 59.3475 114.714C59.5212 115.389 59.652 116.13 59.861 116.828C59.9722 117.2 60.1057 117.56 60.2797 117.89C60.354 118.031 61.726 116.296 61.7967 116.195C62.3007 115.476 62.776 114.738 63.2782 114.017C63.9782 113.013 64.675 112.007 65.3642 110.996C65.9537 110.131 66.774 109.207 66.91 108.131C67.0442 107.068 66.3085 106.066 65.8317 105.169C65.2982 104.166 64.8225 102.974 64.1427 102.07ZM61.6347 114.89C61.358 115.224 60.9025 115.351 60.5772 115.21C60.4072 115.136 60.273 114.989 60.2182 114.761C60.062 114.106 60.5575 112.83 61.406 113.246C61.9322 113.503 62.0267 114.417 61.6347 114.89ZM63.0205 110.684C62.7437 111.018 62.2882 111.144 61.963 111.003C61.793 110.929 61.6587 110.783 61.604 110.554C61.4477 109.9 61.9432 108.624 62.7917 109.039C63.3182 109.297 63.4125 110.21 63.0205 110.684ZM64.1807 106.081C63.904 106.415 63.4485 106.542 63.1232 106.401C62.9532 106.327 62.819 106.18 62.7642 105.952C62.608 105.297 63.1035 104.022 63.952 104.437C64.4785 104.694 64.5727 105.608 64.1807 106.081Z" fill="white" fill-opacity="0.05"/>
<path d="M75.3476 108.753C74.8016 107.96 74.2921 106.793 73.4643 106.276C72.5413 105.699 71.4828 105.27 70.5121 104.778C69.5281 104.278 68.5441 103.779 67.5596 103.281C67.0991 103.048 66.5078 102.637 65.9153 102.398C65.5511 102.251 65.1863 102.169 64.8513 102.233C65.2861 103.338 65.9961 104.429 66.5811 105.468C67.0741 106.342 67.5438 107.282 68.3556 107.905C69.1616 108.523 70.1686 108.871 71.0931 109.269C72.0988 109.703 73.1098 110.125 74.1218 110.544C74.6308 110.755 75.1398 110.966 75.6488 111.176C76.0908 111.359 76.6526 111.819 77.1533 111.684C77.1131 111.214 76.5811 110.595 76.3178 110.189C76.0036 109.705 75.6748 109.23 75.3473 108.754L75.3476 108.753ZM70.9051 107.757C70.1813 107.644 69.7106 107.056 69.7863 106.657C69.8283 106.437 70.0373 106.274 70.4636 106.283C72.0371 106.314 72.4576 108 70.9051 107.757Z" fill="white" fill-opacity="0.05"/>
<path d="M59.1077 123.683C58.863 124.124 58.6105 124.563 58.3545 125H59.2132C59.4107 124.663 59.6057 124.326 59.797 123.988C59.563 123.885 59.336 123.784 59.1075 123.683H59.1077Z" fill="white" fill-opacity="0.05"/>
<path d="M12.2613 121.905C11.9028 122.941 11.516 123.973 11.1035 125H11.8903C12.2798 124.029 12.648 123.057 12.993 122.087C12.7445 122.025 12.5038 121.965 12.2613 121.905V121.905Z" fill="white" fill-opacity="0.05"/>
<path d="M5.94572 117.581C5.07872 120.086 4.04847 122.57 2.87622 125H3.68722C4.81872 122.605 5.81847 120.179 6.67772 117.763C6.42922 117.701 6.18847 117.641 5.94597 117.581H5.94572Z" fill="white" fill-opacity="0.05"/>
<path d="M8.84302 121.776C9.09977 121.812 9.34952 121.847 9.60402 121.883C11.6143 117.577 13.458 113.242 15.112 108.964C14.8528 108.927 14.6013 108.891 14.3483 108.855C12.7023 113.179 10.8558 117.508 8.84277 121.776H8.84302Z" fill="white" fill-opacity="0.05"/>
</g>
<defs>
<clipPath id="clip0_1269_534345">
<rect width="125" height="125" fill="white" fill-opacity="0.05"/>
</clipPath>
</defs>
</svg>