<svg xmlns="http://www.w3.org/2000/svg" width="64" height="64" viewBox="0 0 64 64" fill="none">
<path d="M46.762 19.8815L53.875 26.9931V42.0232L46.762 49.1348H17.238L10.125 42.0232V26.9931L17.238 19.8815H46.762ZM48.5492 25.4675C48.5492 25.4019 48.5139 25.3313 48.4483 25.2658C48.3827 25.2002 48.3121 25.1649 48.2465 25.1649H15.7611C15.6955 25.1649 15.6249 25.2002 15.5593 25.2658C15.4937 25.3313 15.4584 25.4019 15.4584 25.4675V43.5083C15.4584 43.5739 15.4937 43.6445 15.5593 43.7101C15.6249 43.7757 15.6955 43.811 15.7611 43.811H48.2465C48.3121 43.811 48.3827 43.7757 48.4483 43.7101C48.5139 43.6445 48.5492 43.5739 48.5492 43.5083V25.4675Z" fill="#70DA7B"/>
<path d="M29.4824 9.70514C29.4824 9.45377 29.6862 9.25 29.9376 9.25H34.0347C34.2861 9.25 34.4899 9.45377 34.4899 9.70514V19.8815H29.4824V9.70514Z" fill="#70DA7B"/>
<path d="M37.1721 31.9996C37.1721 31.7482 37.3759 31.5444 37.6273 31.5444H41.7243C41.9758 31.5444 42.1796 31.7482 42.1796 31.9996V36.0958C42.1796 36.3472 41.9758 36.551 41.7243 36.551H37.6273C37.3759 36.551 37.1721 36.3472 37.1721 36.0958V31.9996Z" fill="#70DA7B"/>
<path d="M21.8152 31.9996C21.8152 31.7482 22.019 31.5444 22.2704 31.5444H26.3675C26.6189 31.5444 26.8227 31.7482 26.8227 31.9996V36.0958C26.8227 36.3472 26.6189 36.551 26.3675 36.551H22.2704C22.019 36.551 21.8152 36.3472 21.8152 36.0958V31.9996Z" fill="#70DA7B"/>
</svg>